<svg xmlns="http://www.w3.org/2000/svg" width="1024" height="1024" viewBox="0 0 1024 1024"><path fill-rule="evenodd" d="M512,52 C782.619527,52 1002,271.380473 1002,542 C1002,727.618544 898.789845,889.131065 746.627238,972.279861 C752.730542,947.330333 756,920.992125 756,893.761981 C756,857.558575 750.220706,822.93181 739.681566,791.074563 C773.764096,779.159599 805.776529,761.857446 842.111901,736.905679 C903.034311,695.069813 908.158743,597.131739 857.484868,443.091568 C850.98552,423.33519 838.57426,406.323149 822.240994,394.152246 L693.485889,276.474387 C678.205671,262.508538 654.794329,262.508538 639.514111,276.474387 L582.633423,328.46234 C557.82246,325.995434 533.011497,324.761981 508.200534,324.761981 C483.87111,324.761981 459.541687,325.94802 435.212265,328.320103 L378.485889,276.474387 C363.205671,262.508538 339.794329,262.508538 324.514111,276.474387 L195.674973,394.230117 C178.727444,407.451255 166.26812,425.963231 160.576668,447.23473 C118.350057,605.073723 122.92089,701.630706 174.289167,736.905679 C209.280819,760.934704 243.895744,778.663512 284.279865,791.190284 C273.764962,823.017732 268,857.60349 268,893.761981 C268,920.992125 271.269458,947.330333 277.374869,972.270256 C125.210155,889.131065 22,727.618544 22,542 C22,271.380473 241.380473,52 512,52 Z M512.575934,589.000319 C513.099283,606.345964 527.07535,620.243811 544.239759,620.243811 C548.779794,620.243811 553.096767,619.271493 557.000735,617.520236 L539.763798,687.359072 C536.258803,704.492873 524.649854,717 512.065755,717 C499.481655,717 487.872706,704.492873 484.367711,687.359072 L466.999707,616.990394 C471.191705,619.074307 475.902563,620.243811 480.88172,620.243811 C498.046128,620.243811 512.022195,606.345964 512.545544,589.000319 L512.575934,589.000319 Z M389,485 C417.718807,485 441,508.281193 441,537 C441,565.718807 417.718807,589 389,589 C360.281193,589 337,565.718807 337,537 C337,508.281193 360.281193,485 389,485 Z M635,485 C663.718807,485 687,508.281193 687,537 C687,565.718807 663.718807,589 635,589 C606.281193,589 583,565.718807 583,537 C583,508.281193 606.281193,485 635,485 Z"/></svg>