<svg xmlns="http://www.w3.org/2000/svg" width="512" height="512" viewBox="0 0 512 512"><g fill="none" transform="translate(16 113)"><path fill="#000" d="M191.317703 282.664925 132.058592 282.664925C132.132996 277.366564 132.252644 264.988827 132.417538 245.531713 132.582431 226.074598 132.664878 212.872381 132.664878 205.925061 132.664878 199.518022 132.61913 192.135867 132.527634 183.778597 132.436138 175.421327 132.353189 168.221944 132.278786 162.180447 132.059598 149.840368 129.97832 141.122577 126.034952 136.027072 122.091584 130.931568 115.427473 128.383816 106.042618 128.383816 99.8731878 128.383816 92.5062683 129.96298 83.94186 133.121309 75.3774516 136.279638 66.9749203 140.207716 58.7342663 144.905542L59.256094 282.664925 0 282.664925C.0723922756 273.37773.191035172 254.773716.355928689 226.852883.520822205 198.932049.603268964 168.230982.603268964 134.749681.603268964 117.28598.557521067 97.140962.466025274 74.3146285.374529482 51.488295.219187723 26.7167522 0 0L59.256094 0 58.6498087 103.715709 58.9273124 103.992879C70.9404083 97.4271699 83.7473057 91.916413 97.3480045 87.4606082 110.948703 83.0048035 122.848686 80.7769011 133.047954 80.7769011 150.854443 80.7769011 164.980991 86.2836411 175.427598 97.2971211 185.874206 108.310601 191.09751 123.092485 191.09751 141.642772 191.09751 157.284786 191.015063 170.265066 190.850169 180.583613 190.685276 190.902161 190.602829 199.58631 190.602829 206.636062 190.602829 218.610598 190.703374 232.50122 190.904464 248.307929 191.105553 264.114638 191.2433 275.56697 191.317703 282.664925ZM385.766372 180.253721C385.766372 211.744622 385.729673 236.031619 385.656275 253.114715 385.582877 270.19781 385.546178 280.12119 385.546178 282.884853 383.537293 283.067625 375.191569 283.632509 360.509008 284.579505 345.826447 285.526502 330.250545 286 313.781302 286 303.004908 286 290.678112 285.077607 276.800915 283.232822 262.923718 281.388036 251.374134 278.499345 242.152162 274.566748 230.299938 269.477269 221.035737 262.708202 214.359561 254.259546 207.683384 245.810891 204.345296 235.913621 204.345296 224.567739 204.345296 212.299965 207.929216 201.782579 215.097057 193.01558 222.264898 184.248581 233.402751 177.046184 248.510617 171.408391 258.653579 167.604337 271.207103 164.597648 286.17119 162.388324 301.135277 160.179 314.67213 158.645529 326.781749 157.787909 326.343373 150.814479 324.486813 145.098858 321.212068 140.641045 317.937323 136.183231 312.375686 132.72815 304.527157 130.2758 299.42149 128.626841 293.727134 127.459414 287.444088 126.77352 281.161041 126.087625 273.692069 125.744678 265.03717 125.744678 257.301251 125.744678 250.656244 125.87322 245.102147 126.130305 239.548051 126.38739 233.573677 126.652509 227.179026 126.925662L232.2676 83.7986538C234.919973 83.7263486 239.054376 83.5988104 244.67081 83.416039 250.287244 83.2332677 258.244362 83.141882 268.542163 83.141882 290.342292 83.141882 308.472536 85.0077565 322.932893 88.7395055 337.39325 92.4712546 349.576266 98.5940947 359.481943 107.108026 368.651631 115.013389 375.324791 124.576247 379.501423 135.7966 383.678055 147.016953 385.766372 161.835993 385.766372 180.253721ZM329.810159 215.731447C329.810159 211.69441 329.810159 206.930304 329.810159 201.439129 329.810159 195.947955 329.772957 190.191662 329.698554 184.17025 325.869807 184.316869 319.19715 185.067537 309.680582 186.422254 300.164014 187.776971 291.662446 190.012908 284.175878 193.130063 279.025972 195.218878 274.30489 198.46307 270.012631 202.862637 265.720372 207.262204 263.574243 212.669525 263.574243 219.084598 263.574243 226.270927 265.468507 231.990565 269.257037 236.243514 273.045566 240.496462 277.975279 243.731616 284.046175 245.948973 288.462104 247.579856 293.443095 248.779921 298.989147 249.549167 304.5352 250.318414 310.499519 250.703037 316.882105 250.703037 318.510931 250.703037 320.427818 250.666382 322.632766 250.593073 324.837714 250.519763 327.192977 250.446956 329.698554 250.374651 329.698554 248.80804 329.717155 244.926659 329.754356 238.73051 329.791558 232.53436 329.810159 224.868006 329.810159 215.731447Z"/><polygon fill="#05F" points="480 282.665 412.024 282.665 412.024 212.46 480 212.46"/></g></svg>